<svg width="132" height="133" viewBox="0 0 132 133" fill="none" xmlns="http://www.w3.org/2000/svg">
<path d="M24.0894 109.661C14.6512 99.9838 14.8096 84.4511 24.4432 74.968L34.5559 65.0133C44.1895 55.5303 59.6503 55.6879 69.0885 65.3654C78.5268 75.0429 78.3684 90.5757 68.7348 100.059L58.6221 110.013C48.9885 119.497 33.5277 119.339 24.0894 109.661Z" fill="white"/>
<path d="M58.6204 110.015L76.7713 92.1478L65.4985 80.4963L30.7808 114.527C39.8122 118.974 51.0269 117.49 58.6204 110.015Z" fill="#3C309C" fill-opacity="0.1"/>
<ellipse cx="51.8885" cy="82.2206" rx="24.5892" ry="24.7037" fill="#211750"/>
<path d="M38.0923 96.0033C29.4761 87.1686 29.6206 72.9886 38.4152 64.3315L48.5013 54.403L79.7034 86.3962L69.6173 96.3247C60.8228 104.982 46.7085 104.838 38.0923 96.0033Z" fill="white"/>
<path d="M69.1263 96.8079L79.7185 86.3812L69.4123 75.7594L44.8384 100.705C54.8116 105.197 64.6951 101.17 69.1263 96.8079Z" fill="#3C309C" fill-opacity="0.1"/>
<mask id="mask0" mask-type="alpha" maskUnits="userSpaceOnUse" x="28" y="50" width="56" height="56">
<path d="M35.0521 98.926C26.434 90.0895 26.5757 75.9095 35.3685 67.2542L51.9337 50.9479L83.1424 82.9478L66.5772 99.2541C57.7844 107.909 43.6702 107.763 35.0521 98.926Z" fill="white"/>
</mask>
<g mask="url(#mask0)">
<path d="M87.817 72.9898C87.1796 87.2003 75.1924 98.1929 61.0472 97.547C46.902 96.9012 35.948 84.8611 36.5854 70.6506C37.2229 56.4401 49.21 45.4475 63.3552 46.0934C77.5005 46.7393 88.4545 58.7793 87.817 72.9898Z" stroke="#312783" stroke-opacity="0.1"/>
<path d="M92.4853 68.7059C91.8479 82.9164 79.8608 93.909 65.7155 93.2631C51.5703 92.6173 40.6163 80.5772 41.2538 66.3667C41.8912 52.1562 53.8783 41.1636 68.0236 41.8095C82.1688 42.4553 93.1228 54.4954 92.4853 68.7059Z" stroke="#312783" stroke-opacity="0.1"/>
</g>
<path d="M71.3191 52.3343L38.3043 5H9.07236L8.38455 7.07303L40.6587 52.3343H71.3191Z" fill="#170F3B"/>
<path d="M38.5225 5H9.07233L41.3465 50.2612H72.0069L38.5225 5Z" fill="#5857A3"/>
<g opacity="0.4">
<line x1="20.0773" y1="13.8287" x2="40.7116" y2="13.8287" stroke="#2F2862"/>
<line x1="22.8285" y1="17.2838" x2="43.4628" y2="17.2838" stroke="#2F2862"/>
<line x1="25.2358" y1="20.7388" x2="45.8701" y2="20.7388" stroke="#2F2862"/>
<line x1="27.9871" y1="24.5393" x2="48.6214" y2="24.5393" stroke="#2F2862"/>
<line x1="30.3944" y1="27.9944" x2="51.0287" y2="27.9944" stroke="#2F2862"/>
<line x1="33.1457" y1="31.4495" x2="53.7799" y2="31.4495" stroke="#2F2862"/>
<line x1="35.5529" y1="34.9045" x2="56.1872" y2="34.9045" stroke="#2F2862"/>
<line x1="38.3042" y1="38.7051" x2="58.9385" y2="38.7051" stroke="#2F2862"/>
<line x1="41.0555" y1="42.5057" x2="61.6897" y2="42.5057" stroke="#2F2862"/>
</g>
<g filter="url(#filter0_d)">
<path fill-rule="evenodd" clip-rule="evenodd" d="M45.05 64.3366C45.05 77.9497 56.0346 88.9855 69.5847 88.9855C83.1348 88.9855 94.1193 77.9497 94.1193 64.3366C94.1193 50.7234 83.1348 39.6877 69.5847 39.6877C56.0346 39.6877 45.05 50.7234 45.05 64.3366Z" fill="white"/>
</g>
<path fill-rule="evenodd" clip-rule="evenodd" d="M59.3427 86.7414C67.6127 86.1726 75.7029 82.5972 81.8494 76.0658C88.0518 69.4749 91.1519 61.0675 91.1997 52.6643C93.0624 56.1387 94.1195 60.1136 94.1195 64.3366C94.1195 77.9496 83.135 88.9854 69.5848 88.9854C65.9289 88.9854 62.4597 88.1821 59.3427 86.7414Z" fill="#EBEAF5"/>
<path fill-rule="evenodd" clip-rule="evenodd" d="M69.4159 64.4611C76.4784 71.5566 85.9698 73.5256 90.615 68.8588C95.2602 64.1918 93.3005 54.6564 86.2378 47.5609C79.175 40.4653 69.6838 38.4965 65.0386 43.1633C60.3934 47.8301 62.3532 57.3655 69.4159 64.4611Z" fill="#211750"/>
<path fill-rule="evenodd" clip-rule="evenodd" d="M72.6683 61.1937C76.3447 64.8873 81.2854 65.9121 83.7035 63.4828C86.1215 61.0533 85.1013 56.0898 81.425 52.3962C77.7485 48.7026 72.808 47.6778 70.3898 50.1071C67.9717 52.5364 68.9918 57.5001 72.6683 61.1937Z" fill="#E6007E"/>
<path fill-rule="evenodd" clip-rule="evenodd" d="M73.7145 59.7211C75.456 61.4708 77.7961 61.9561 78.9416 60.8053C80.087 59.6547 79.6039 57.3034 77.8623 55.5539C76.1209 53.8042 73.7805 53.3188 72.6352 54.4696C71.4898 55.6204 71.9729 57.9714 73.7145 59.7211Z" fill="white"/>
<path d="M94.3078 128H124.968L126 126.1L92.6412 80.6657H63.0654L62.0337 82.7388L94.3078 128Z" fill="#211750"/>
<path d="M92.5156 80.6657H63.0654L95.3396 125.927H126L92.5156 80.6657Z" fill="#5857A3"/>
<g opacity="0.3">
<line x1="72.6947" y1="87.4213" x2="93.329" y2="87.4213" stroke="#2F2862"/>
<line x1="75.446" y1="90.8764" x2="96.0802" y2="90.8764" stroke="#2F2862"/>
<line x1="77.8533" y1="94.3315" x2="98.4876" y2="94.3315" stroke="#2F2862"/>
<line x1="80.6045" y1="98.132" x2="101.239" y2="98.132" stroke="#2F2862"/>
<line x1="83.0118" y1="101.587" x2="103.646" y2="101.587" stroke="#2F2862"/>
<line x1="85.7631" y1="105.042" x2="106.397" y2="105.042" stroke="#2F2862"/>
<line x1="88.1704" y1="108.497" x2="108.805" y2="108.497" stroke="#2F2862"/>
<line x1="90.9217" y1="112.298" x2="111.556" y2="112.298" stroke="#2F2862"/>
<line x1="93.6729" y1="116.098" x2="114.307" y2="116.098" stroke="#2F2862"/>
</g>
<defs>
<filter id="filter0_d" x="25.05" y="19.6877" width="89.0694" height="89.2978" filterUnits="userSpaceOnUse" color-interpolation-filters="sRGB">
<feFlood flood-opacity="0" result="BackgroundImageFix"/>
<feColorMatrix in="SourceAlpha" type="matrix" values="0 0 0 0 0 0 0 0 0 0 0 0 0 0 0 0 0 0 127 0"/>
<feOffset/>
<feGaussianBlur stdDeviation="10"/>
<feColorMatrix type="matrix" values="0 0 0 0 0.192 0 0 0 0 0.153 0 0 0 0 0.514 0 0 0 0.3 0"/>
<feBlend mode="normal" in2="BackgroundImageFix" result="effect1_dropShadow"/>
<feBlend mode="normal" in="SourceGraphic" in2="effect1_dropShadow" result="shape"/>
</filter>
</defs>
</svg>
