<?xml version="1.0" encoding="UTF-8"?>
<svg width="46px" height="46px" viewBox="0 0 46 46" version="1.1" xmlns="http://www.w3.org/2000/svg" xmlns:xlink="http://www.w3.org/1999/xlink">
    <title>icons/hubble/plain</title>
    <desc>Created with sketchtool.</desc>
    <g id="primitives" stroke="none" stroke-width="1" fill="none" fill-rule="evenodd">
        <g id="icons/hubble/plain">
            <g id="plain">
                <path d="M45.9694,23.0328 C45.9694,35.6603 35.7066,45.8969 23.0468,45.8969 C10.387,45.8969 0.124191,35.6603 0.124191,23.0328 C0.124191,10.4053 10.387,0.168777 23.0468,0.168777 C35.7066,0.168777 45.9694,10.4053 45.9694,23.0328 Z" id="Path" fill="#C2E6F2"></path>
                <path d="M40.1315,22.3504 C40.1315,31.4271 32.7923,38.7853 23.7392,38.7853 C14.686,38.7853 7.34689,31.4271 7.34689,22.3504 C7.34689,13.2736 14.686,5.91551 23.7392,5.91551 C32.7923,5.91551 40.1315,13.2736 40.1315,22.3504 Z" id="Path" fill="#FFFFFF"></path>
                <path d="M7.99202,40.3663 C14.0763,45.3281 19.284,46 23.0995,46 C29.0806,46 36.3508,43.209 40.6061,37.8163 L40.6061,22.3706 L7.82147,22.3706 L7.99202,40.3663 Z" id="Path" fill="#FFFFFF"></path>
                <path d="M22.6967,21.3181 C18.503,25.5228 12.8671,26.6895 10.1088,23.9241 C7.35046,21.1585 8.51412,15.508 12.7079,11.3033 C16.9018,7.09859 22.5377,5.9319 25.296,8.69737 C28.0543,11.4628 26.8905,17.1133 22.6967,21.3181 Z" id="Path" fill="#312783"></path>
                <path d="M21.2694,19.8869 C19.0608,22.1013 16.0926,22.7157 14.64,21.2593 C13.1874,19.8028 13.8002,16.827 16.0088,14.6126 C18.2175,12.3983 21.1855,11.7839 22.6382,13.2403 C24.0909,14.6967 23.4781,17.6725 21.2694,19.8869 Z" id="Path" fill="#E6007E"></path>
                <path d="M20.791,19.4072 C19.7705,20.4303 18.3994,20.7141 17.7283,20.0412 C17.0571,19.3684 17.3402,17.9935 18.3606,16.9705 C19.381,15.9474 20.7523,15.6636 21.4234,16.3365 C22.0945,17.0094 21.8114,18.3841 20.791,19.4072 Z" id="Path" fill="#FFFFFF"></path>
                <path d="M40.4676,22.2232 C40.5378,22.4089 40.4443,22.6163 40.2586,22.6865 L7.47406,35.091 C7.28843,35.1613 7.081,35.0677 7.01076,34.8821 C6.94053,34.6964 7.03407,34.489 7.21971,34.4188 L40.0043,22.0143 C40.1899,21.9441 40.3974,22.0376 40.4676,22.2232 Z" id="Path" fill="#C2E6F2"></path>
            </g>
        </g>
    </g>
</svg>
