<svg width="46" height="46" viewBox="0 0 46 46" fill="none" xmlns="http://www.w3.org/2000/svg">
<path fill-rule="evenodd" clip-rule="evenodd" d="M46 22.9413C46 35.6114 35.7026 45.8825 23 45.8825C10.2974 45.8825 0 35.6114 0 22.9413C0 10.2711 10.2974 0 23 0C35.7026 0 46 10.2711 46 22.9413Z" fill="#C2E6F2"/>
<path fill-rule="evenodd" clip-rule="evenodd" d="M40.1424 22.2565C40.1424 31.3638 32.7785 38.7469 23.6947 38.7469C14.6109 38.7469 7.24709 31.3638 7.24709 22.2565C7.24709 13.1491 14.6109 5.76614 23.6947 5.76614C32.7785 5.76614 40.1424 13.1491 40.1424 22.2565Z" fill="white"/>
<path fill-rule="evenodd" clip-rule="evenodd" d="M7.8944 40.3333C13.9992 45.3118 19.2245 45.986 23.0529 45.986C29.0542 45.986 36.349 43.1856 40.6186 37.7746V22.2768H7.72328L7.8944 40.3333Z" fill="white"/>
<path fill-rule="evenodd" clip-rule="evenodd" d="M22.6488 21.2207C18.4409 25.4396 12.7859 26.6103 10.0183 23.8355C7.25067 21.0606 8.41827 15.391 12.6262 11.1721C16.8343 6.95321 22.4892 5.78258 25.2568 8.5574C28.0244 11.3322 26.8567 17.0018 22.6488 21.2207Z" fill="#312783"/>
<path fill-rule="evenodd" clip-rule="evenodd" d="M21.2166 19.7847C19.0005 22.0066 16.0224 22.6231 14.5648 21.1617C13.1073 19.7003 13.7222 16.7145 15.9383 14.4926C18.1544 12.2708 21.1324 11.6543 22.5901 13.1157C24.0476 14.577 23.4327 17.5629 21.2166 19.7847Z" fill="#E6007E"/>
<path fill-rule="evenodd" clip-rule="evenodd" d="M20.7366 19.3034C19.7127 20.33 18.3369 20.6147 17.6635 19.9396C16.9901 19.2645 17.2741 17.885 18.298 16.8585C19.3218 15.832 20.6978 15.5472 21.3711 16.2223C22.0445 16.8975 21.7605 18.2769 20.7366 19.3034Z" fill="white"/>
<path fill-rule="evenodd" clip-rule="evenodd" d="M40.4796 22.1289C40.5501 22.3152 40.4563 22.5233 40.27 22.5938L7.37469 35.0402C7.18843 35.1107 6.9803 35.0168 6.90983 34.8305C6.83936 34.6443 6.93322 34.4361 7.11948 34.3657L40.0148 21.9193C40.201 21.8488 40.4092 21.9427 40.4796 22.1289Z" fill="#C2E6F2"/>
</svg>
