<?xml version="1.0" encoding="UTF-8"?>
<svg width="118px" height="123px" viewBox="0 0 118 123" version="1.1" xmlns="http://www.w3.org/2000/svg" xmlns:xlink="http://www.w3.org/1999/xlink">
    <title>illustrations/hubble/telescope</title>
    <desc>Created with sketchtool.</desc>
    <defs>
        <path d="M7.0521,48.926 C-1.566,40.0895 -1.4243,25.9095 7.3685,17.2542 L23.9337,0.9479 L55.1424,32.9478 L38.5772,49.2541 C29.7844,57.909 15.6702,57.763 7.0521,48.926 Z" id="path-1"></path>
    </defs>
    <g id="primitives" stroke="none" stroke-width="1" fill="none" fill-rule="evenodd">
        <g id="illustrations/hubble/telescope" transform="translate(-10.000000, -6.000000)">
            <g id="telescope" transform="translate(10.000000, 6.000000)">
                <path d="M16.0894,104.661 C6.6512,94.9838 6.8096,79.4511 16.4432,69.968 L26.5559,60.0133 C36.1895,50.5303 51.6503,50.6879 61.0885,60.3654 C70.5268,70.0429 70.3684,85.5757 60.7348,95.059 L50.6221,105.013 C40.9885,114.497 25.5277,114.339 16.0894,104.661 Z" id="Path" fill="#FFFFFF" fill-rule="nonzero"></path>
                <path d="M50.6204,105.015 L68.7713,87.1478 L57.4985,75.4963 L22.7808,109.527 C31.8122,113.974 43.0269,112.49 50.6204,105.015 Z" id="Path" fill-opacity="0.1" fill="#3C309C" fill-rule="nonzero"></path>
                <ellipse id="Oval" fill="#211750" fill-rule="nonzero" cx="43.8885" cy="77.2206" rx="24.5892" ry="24.7037"></ellipse>
                <path d="M30.0923,91.0033 C21.4761,82.1686 21.6206,67.9886 30.4152,59.3315 L40.5013,49.403 L71.7034,81.3962 L61.6173,91.3247 C52.8228,99.982 38.7085,99.838 30.0923,91.0033 Z" id="Path" fill="#FFFFFF" fill-rule="nonzero"></path>
                <path d="M61.1263,91.8079 L71.7185,81.3812 L61.4123,70.7594 L36.8384,95.705 C46.8116,100.197 56.6951,96.17 61.1263,91.8079 Z" id="Path" fill-opacity="0.1" fill="#3C309C" fill-rule="nonzero"></path>
                <g id="Clipped" transform="translate(20.000000, 45.000000)">
                    <mask id="mask-2" fill="white">
                        <use xlink:href="#path-1"></use>
                    </mask>
                    <g id="Path"></g>
                    <g id="Group" mask="url(#mask-2)" stroke="#312783" stroke-opacity="0.1">
                        <g transform="translate(8.000000, -9.000000)" id="Path">
                            <path d="M51.817,31.9898 C51.1796,46.2003 39.1924,57.1929 25.0472,56.547 C10.902,55.9012 -0.052,43.8611 0.5854,29.6506 C1.2229,15.4401 13.21,4.4475 27.3552,5.0934 C41.5005,5.7393 52.4545,17.7793 51.817,31.9898 Z"></path>
                            <path d="M56.4853,27.7059 C55.8479,41.9164 43.8608,52.909 29.7155,52.2631 C15.5703,51.6173 4.6163,39.5772 5.2538,25.3667 C5.8912,11.1562 17.8783,0.1636 32.0236,0.8095 C46.1688,1.4553 57.1228,13.4954 56.4853,27.7059 Z"></path>
                        </g>
                    </g>
                </g>
                <polygon id="Path" fill="#170F3B" fill-rule="nonzero" points="63.3191 47.3343 30.3043 0 1.07236 0 0.38455 2.07303 32.6587 47.3343"></polygon>
                <polygon id="Path" fill="#5857A3" fill-rule="nonzero" points="30.5225 0 1.07233 0 33.3465 45.2612 64.0069 45.2612"></polygon>
                <g id="Group" opacity="0.4" transform="translate(12.000000, 8.000000)" stroke="#2F2862">
                    <path d="M0.0773,0.8287 L20.7116,0.8287" id="Path"></path>
                    <path d="M2.8285,4.2838 L23.4628,4.2838" id="Path"></path>
                    <path d="M5.2358,7.7388 L25.8701,7.7388" id="Path"></path>
                    <path d="M7.9871,11.5393 L28.6214,11.5393" id="Path"></path>
                    <path d="M10.3944,14.9944 L31.0287,14.9944" id="Path"></path>
                    <path d="M13.1457,18.4495 L33.7799,18.4495" id="Path"></path>
                    <path d="M15.5529,21.9045 L36.1872,21.9045" id="Path"></path>
                    <path d="M18.3042,25.7051 L38.9385,25.7051" id="Path"></path>
                    <path d="M21.0555,29.5057 L41.6897,29.5057" id="Path"></path>
                </g>
                <path d="M37.05,59.3366 C37.05,72.9497 48.0346,83.9855 61.5847,83.9855 C75.1348,83.9855 86.1193,72.9497 86.1193,59.3366 C86.1193,45.7234 75.1348,34.6877 61.5847,34.6877 C48.0346,34.6877 37.05,45.7234 37.05,59.3366 Z" id="Path" fill="#FFFFFF"></path>
                <path d="M51.3427,81.7414 C59.6127,81.1726 67.7029,77.5972 73.8494,71.0658 C80.0518,64.4749 83.1519,56.0675 83.1997,47.6643 C85.0624,51.1387 86.1195,55.1136 86.1195,59.3366 C86.1195,72.9496 75.135,83.9854 61.5848,83.9854 C57.9289,83.9854 54.4597,83.1821 51.3427,81.7414 Z" id="Path" fill="#EBEAF5"></path>
                <path d="M61.4159,59.4611 C68.4784,66.5566 77.9698,68.5256 82.615,63.8588 C87.2602,59.1918 85.3005,49.6564 78.2378,42.5609 C71.175,35.4653 61.6838,33.4965 57.0386,38.1633 C52.3934,42.8301 54.3532,52.3655 61.4159,59.4611 Z" id="Path" fill="#211750"></path>
                <path d="M64.6683,56.1937 C68.3447,59.8873 73.2854,60.9121 75.7035,58.4828 C78.1215,56.0533 77.1013,51.0898 73.425,47.3962 C69.7485,43.7026 64.808,42.6778 62.3898,45.1071 C59.9717,47.5364 60.9918,52.5001 64.6683,56.1937 Z" id="Path" fill="#E6007E"></path>
                <path d="M65.7145,54.7211 C67.456,56.4708 69.7961,56.9561 70.9416,55.8053 C72.087,54.6547 71.6039,52.3034 69.8623,50.5539 C68.1209,48.8042 65.7805,48.3188 64.6352,49.4696 C63.4898,50.6204 63.9729,52.9714 65.7145,54.7211 Z" id="Path" fill="#FFFFFF"></path>
                <polygon id="Path" fill="#211750" fill-rule="nonzero" points="86.3078 123 116.968 123 118 121.1 84.6412 75.6657 55.0654 75.6657 54.0337 77.7388"></polygon>
                <polygon id="Path" fill="#5857A3" fill-rule="nonzero" points="84.5156 75.6657 55.0654 75.6657 87.3396 120.927 118 120.927"></polygon>
                <g id="Group" opacity="0.3" transform="translate(64.000000, 81.000000)" stroke="#2F2862">
                    <path d="M0.6947,1.4213 L21.329,1.4213" id="Path"></path>
                    <path d="M3.446,4.8764 L24.0802,4.8764" id="Path"></path>
                    <path d="M5.8533,8.3315 L26.4876,8.3315" id="Path"></path>
                    <path d="M8.6045,12.132 L29.239,12.132" id="Path"></path>
                    <path d="M11.0118,15.587 L31.646,15.587" id="Path"></path>
                    <path d="M13.7631,19.042 L34.397,19.042" id="Path"></path>
                    <path d="M16.1704,22.497 L36.805,22.497" id="Path"></path>
                    <path d="M18.9217,26.298 L39.556,26.298" id="Path"></path>
                    <path d="M21.6729,30.098 L42.307,30.098" id="Path"></path>
                </g>
            </g>
        </g>
    </g>
</svg>
